<?xml version="1.0" standalone="no"?>
<!DOCTYPE svg PUBLIC "-//W3C//DTD SVG 20010904//EN"
 "http://www.w3.org/TR/2001/REC-SVG-20010904/DTD/svg10.dtd">
<svg version="1.0" xmlns="http://www.w3.org/2000/svg"
 width="187.000000pt" height="187.000000pt" viewBox="0 0 187.000000 187.000000"
 preserveAspectRatio="xMidYMid meet">
<metadata>
Created by potrace 1.11, written by Peter Selinger 2001-2013
</metadata>
<g transform="translate(0.000000,187.000000) scale(0.100000,-0.100000)"
fill="#000000" stroke="none">
<path d="M0 935 l0 -935 334 0 334 0 -69 161 c-38 88 -69 171 -69 185 0 77 82
130 154 100 22 -9 53 -39 87 -85 30 -39 57 -71 61 -71 5 0 8 124 8 276 l0 276
-37 -22 c-21 -13 -117 -67 -213 -120 -96 -54 -192 -108 -213 -120 l-38 -23 3
38 3 39 180 101 c99 56 210 118 246 138 58 32 66 40 67 66 1 32 7 28 -313 206
-66 36 -122 68 -124 71 -5 5 30 44 40 44 4 0 103 -54 220 -119 204 -115 213
-119 235 -104 l24 15 0 262 0 261 30 0 30 0 0 -261 0 -262 24 -16 c27 -17 -14
-38 434 214 94 54 103 57 112 40 19 -35 10 -45 -83 -96 -50 -28 -163 -90 -249
-138 -217 -121 -219 -109 45 -256 306 -171 277 -150 258 -182 l-17 -26 -79 45
c-44 25 -120 68 -170 95 -49 28 -114 63 -142 80 l-53 29 0 -131 0 -132 26 6
c34 9 90 -10 109 -37 12 -17 23 -20 68 -18 41 2 59 -2 77 -17 20 -16 35 -19
77 -15 50 5 54 4 88 -30 l35 -35 0 -107 0 -106 -27 3 -28 3 -5 98 c-5 100 -12
116 -52 117 -37 0 -48 -38 -48 -173 l0 -128 -27 3 -28 3 -3 152 c-2 149 -3
153 -27 169 -18 12 -28 13 -44 4 -27 -14 -31 -32 -34 -185 l-2 -130 -25 0 -25
0 -3 172 c-2 172 -3 173 -27 189 -23 15 -27 15 -50 0 -24 -16 -25 -17 -27
-189 l-3 -172 -25 0 -25 0 -5 335 c-3 184 -9 341 -13 348 -10 15 -59 16 -75 0
-9 -9 -12 -98 -12 -339 0 -417 2 -414 -139 -227 -88 116 -110 135 -140 118
-38 -20 -33 -44 41 -219 l73 -171 568 0 567 0 0 935 0 935 -935 0 -935 0 0
-935z m1008 882 c45 -22 66 -100 41 -150 -20 -38 -51 -57 -99 -57 -52 0 -83
18 -105 60 -21 40 -19 72 8 111 36 53 93 67 155 36z m728 -361 c28 -28 34 -41
34 -79 0 -50 -31 -115 -87 -183 -29 -36 -41 -44 -69 -44 -24 0 -34 5 -34 15 0
10 10 15 29 15 35 0 78 46 117 127 31 63 26 101 -18 138 -33 28 -54 31 -92 14
-23 -11 -56 -62 -56 -88 0 -6 -4 -11 -10 -11 -5 0 -10 14 -10 31 0 22 10 41
34 65 29 29 41 34 81 34 40 0 52 -5 81 -34z m-1366 -28 c24 -13 53 -36 64 -51
19 -26 19 -30 6 -55 -34 -59 -122 -94 -189 -73 -36 10 -111 74 -111 94 0 22
46 71 84 88 54 25 93 24 146 -3z m1330 -37 c7 -13 7 -22 0 -26 -5 -3 -10 1
-10 9 0 9 -9 16 -20 16 -15 0 -20 -7 -20 -28 0 -15 5 -33 11 -39 14 -14 2 -53
-17 -53 -17 0 -19 17 -1 23 10 4 10 7 0 18 -16 17 -17 71 -1 87 18 18 46 14
58 -7z m28 -560 c7 -4 22 -50 33 -101 10 -51 20 -94 22 -94 1 -1 15 -8 32 -16
68 -35 49 -132 -26 -138 -19 -1 -44 -8 -57 -14 -17 -9 -31 -9 -56 0 -18 7 -45
12 -61 12 -41 0 -65 26 -65 72 0 40 27 78 55 78 15 0 17 5 39 113 19 91 42
115 84 88z m-1695 -65 c11 -28 91 -56 158 -56 69 0 145 27 155 55 3 8 10 15
15 15 18 0 -11 -39 -41 -57 l-30 -17 0 -97 c0 -88 -2 -98 -25 -123 -32 -35
-107 -37 -142 -4 -21 20 -23 30 -23 120 l0 98 -39 26 c-38 24 -60 54 -42 54 5
0 11 -6 14 -14z"/>
<path d="M891 1804 c-13 -9 -29 -32 -37 -50 -27 -65 24 -134 99 -134 54 0 97
45 97 102 0 79 -94 127 -159 82z m89 -54 c11 -11 20 -24 20 -30 0 -12 -37 -50
-48 -50 -18 0 -52 33 -52 50 0 22 26 50 46 50 8 0 23 -9 34 -20z"/>
<path d="M926 1745 c-9 -9 -16 -20 -16 -25 0 -14 31 -41 43 -37 21 7 32 36 21
54 -15 24 -29 26 -48 8z"/>
<path d="M232 1413 c-18 -9 -41 -28 -52 -43 -19 -26 -19 -26 7 -54 28 -30 80
-56 113 -56 31 0 95 36 113 64 15 23 15 26 -3 49 -42 53 -118 70 -178 40z m92
-29 c19 -7 21 -55 4 -72 -28 -28 -78 -7 -78 33 0 38 33 55 74 39z"/>
<path d="M265 1360 c-8 -27 12 -52 39 -48 16 2 21 10 21 33 0 25 -4 31 -27 33
-19 2 -28 -2 -33 -18z"/>
<path d="M1681 817 c-6 -8 -18 -47 -26 -88 -21 -101 -24 -109 -41 -109 -45 0
-71 -82 -36 -113 23 -21 62 -22 62 -2 0 8 -7 15 -15 15 -8 0 -15 5 -15 10 0 6
9 10 20 10 13 0 20 -7 20 -20 0 -23 32 -43 63 -38 12 2 28 15 35 31 13 27 35
36 46 18 3 -5 -3 -11 -14 -14 -28 -7 -25 -27 3 -27 61 0 78 91 22 120 -16 8
-31 15 -33 16 -1 0 -11 43 -23 95 -22 103 -40 129 -68 96z m2 -109 c-10 -56
-24 -77 -17 -28 4 25 8 48 11 53 9 16 12 5 6 -25z"/>
<path d="M110 614 c0 -81 1 -87 29 -115 33 -33 50 -35 90 -14 37 19 41 31 41
131 0 87 -4 93 -44 78 -13 -5 -16 -23 -16 -95 0 -53 -4 -89 -10 -89 -6 0 -10
36 -10 89 l0 89 -31 6 c-17 3 -35 6 -40 6 -5 0 -9 -39 -9 -86z"/>
<path d="M916 974 c-9 -8 -16 -26 -16 -38 0 -22 4 -23 48 -21 53 2 67 22 36
56 -21 23 -47 24 -68 3z"/>
</g>
</svg>
